<svg xmlns="http://www.w3.org/2000/svg" width="1200" height="630" viewBox="0 0 1200 630"><defs><linearGradient id="bg" x1="0%" y1="0%" x2="100%" y2="100%"><stop offset="0%" style="stop-color:#f8f9fa;stop-opacity:1"/><stop offset="100%" style="stop-color:#e9ecef;stop-opacity:1"/></linearGradient></defs><rect width="1200" height="630" fill="url(#bg)"/><g opacity="0.1"><rect x="200" y="150" width="80" height="80" rx="12" fill="#185fa5"/><rect x="290" y="150" width="80" height="80" rx="12" fill="#185fa5"/><rect x="380" y="150" width="80" height="80" rx="12" fill="#185fa5"/><rect x="200" y="240" width="80" height="80" rx="12" fill="#185fa5"/><rect x="290" y="240" width="80" height="80" rx="12" fill="#185fa5"/><rect x="380" y="240" width="80" height="80" rx="12" fill="#185fa5"/></g><text x="600" y="280" text-anchor="middle" font-family="Arial, sans-serif" font-size="96" font-weight="bold" fill="#185fa5">ToolGrid</text><text x="600" y="350" text-anchor="middle" font-family="Arial, sans-serif" font-size="42" fill="#2c3e50">32 Free Developer Tools</text><text x="600" y="410" text-anchor="middle" font-family="Arial, sans-serif" font-size="32" fill="#6c757d">Fast • Simple • No Signup Required</text><circle cx="150" cy="500" r="8" fill="#185fa5" opacity="0.3"/><circle cx="180" cy="520" r="6" fill="#185fa5" opacity="0.4"/><circle cx="210" cy="500" r="10" fill="#185fa5" opacity="0.2"/><circle cx="990" cy="150" r="8" fill="#185fa5" opacity="0.3"/><circle cx="1020" cy="170" r="6" fill="#185fa5" opacity="0.4"/><circle cx="1050" cy="150" r="10" fill="#185fa5" opacity="0.2"/></svg>